{
  "accessors": [
    {
      "bufferView": 2,
      "componentType": 5126,
      "count": 65532,
      "max": [
        0.45694395899772644,
        0.7420734763145447,
        0.6028342247009277
      ],
      "min": [
        -0.5162675380706787,
        0.16970977187156677,
        -0.5775328874588013
      ],
      "type": "VEC3"
    },
    {
      "bufferView": 2,
      "byteOffset": 786384,
      "componentType": 5126,
      "count": 65532,
      "max": [
        0.999760627746582,
        0.999994158744812,
        0.945839524269104
      ],
      "min": [
        -0.9999973773956299,
        -0.9999536275863647,
        -0.9999656677246094
      ],
      "type": "VEC3"
    },
    {
      "bufferView": 3,
      "componentType": 5126,
      "count": 65532,
      "max": [
        0.9999920129776001,
        0.9956772327423096,
        0.9964665174484253,
        1.0
      ],
      "min": [
        -0.9999738931655884,
        -0.9999675154685974,
        -0.9923073649406433,
        1.0
      ],
      "type": "VEC4"
    },
    {
      "bufferView": 1,
      "componentType": 5126,
      "count": 65532,
      "max": [
        0.9747305512428284,
        0.9703473448753357
      ],
      "min": [
        0.2518683969974518,
        -0.20809924602508545
      ],
      "type": "VEC2"
    },
    {
      "bufferView": 1,
      "byteOffset": 524256,
      "componentType": 5126,
      "count": 65532,
      "max": [
        1.040831446647644,
        0.9253968596458435
      ],
      "min": [
        0.23736238479614258,
        -0.18399137258529663
      ],
      "type": "VEC2"
    },
    {
      "bufferView": 0,
      "componentType": 5125,
      "count": 379293,
      "type": "SCALAR"
    },
    {
      "bufferView": 2,
      "byteOffset": 1572768,
      "componentType": 5126,
      "count": 7610,
      "max": [
        0.45694026350975037,
        0.6593834161758423,
        0.6032122373580933
      ],
      "min": [
        -0.5048466920852661,
        0.19068129360675812,
        -0.2896583676338196
      ],
      "type": "VEC3"
    },
    {
      "bufferView": 2,
      "byteOffset": 1664088,
      "componentType": 5126,
      "count": 7610,
      "max": [
        0.9978435635566711,
        0.9536451697349548,
        0.5524224638938904
      ],
      "min": [
        -0.9999041557312012,
        -0.9811663031578064,
        -0.9999998807907104
      ],
      "type": "VEC3"
    },
    {
      "bufferView": 3,
      "byteOffset": 1048512,
      "componentType": 5126,
      "count": 7610,
      "max": [
        0.9999929666519165,
        0.8723816871643066,
        0.9437975883483887,
        1.0
      ],
      "min": [
        -0.9731913805007935,
        -0.9792998433113098,
        -0.9923073649406433,
        1.0
      ],
      "type": "VEC4"
    },
    {
      "bufferView": 1,
      "byteOffset": 1048512,
      "componentType": 5126,
      "count": 7610,
      "max": [
        0.9681144952774048,
        0.9643666744232178
      ],
      "min": [
        0.26408976316452026,
        -0.11022764444351196
      ],
      "type": "VEC2"
    },
    {
      "bufferView": 1,
      "byteOffset": 1109392,
      "componentType": 5126,
      "count": 7610,
      "max": [
        1.0291669368743896,
        0.9196522235870361
      ],
      "min": [
        0.24543775618076324,
        -0.06715904921293259
      ],
      "type": "VEC2"
    },
    {
      "bufferView": 0,
      "byteOffset": 1517172,
      "componentType": 5125,
      "count": 38499,
      "type": "SCALAR"
    },
    {
      "bufferView": 2,
      "byteOffset": 1755408,
      "componentType": 5126,
      "count": 65532,
      "max": [
        0.5798122882843018,
        0.4079395830631256,
        0.4696730077266693
      ],
      "min": [
        -0.6405575275421143,
        0.0112953782081604,
        -0.7493160367012024
      ],
      "type": "VEC3"
    },
    {
      "bufferView": 2,
      "byteOffset": 2541792,
      "componentType": 5126,
      "count": 65532,
      "max": [
        0.999956488609314,
        0.9999996423721313,
        0.9999897480010986
      ],
      "min": [
        -0.9999978542327881,
        -0.9999822378158569,
        -0.9998934268951416
      ],
      "type": "VEC3"
    },
    {
      "bufferView": 1,
      "byteOffset": 1170272,
      "componentType": 5126,
      "count": 65532,
      "max": [
        0.9998259544372559,
        0.6706212759017944
      ],
      "min": [
        0.029366763308644295,
        0.03306187689304352
      ],
      "type": "VEC2"
    },
    {
      "bufferView": 1,
      "byteOffset": 1694528,
      "componentType": 5126,
      "count": 65532,
      "max": [
        0.9998258352279663,
        0.6708661317825317
      ],
      "min": [
        0.032668571919202805,
        0.03342261165380478
      ],
      "type": "VEC2"
    },
    {
      "bufferView": 0,
      "byteOffset": 1671168,
      "componentType": 5125,
      "count": 386868,
      "type": "SCALAR"
    },
    {
      "bufferView": 2,
      "byteOffset": 3328176,
      "componentType": 5126,
      "count": 49105,
      "max": [
        0.565498948097229,
        0.4087772071361542,
        0.44070467352867126
      ],
      "min": [
        -0.6248987913131714,
        0.008631736040115356,
        -0.7166042327880859
      ],
      "type": "VEC3"
    },
    {
      "bufferView": 2,
      "byteOffset": 3917436,
      "componentType": 5126,
      "count": 49105,
      "max": [
        0.9989567399024963,
        0.9999992847442627,
        0.9508213996887207
      ],
      "min": [
        -0.9888781905174255,
        -0.9999990463256836,
        -0.98894864320755
      ],
      "type": "VEC3"
    },
    {
      "bufferView": 1,
      "byteOffset": 2218784,
      "componentType": 5126,
      "count": 49105,
      "max": [
        0.46129903197288513,
        0.7677463889122009
      ],
      "min": [
        0.00017408978601451963,
        0.00017408978601451963
      ],
      "type": "VEC2"
    },
    {
      "bufferView": 1,
      "byteOffset": 2611624,
      "componentType": 5126,
      "count": 49105,
      "max": [
        0.46110236644744873,
        0.7683138847351074
      ],
      "min": [
        0.00017414950707461685,
        0.00017414950707461685
      ],
      "type": "VEC2"
    },
    {
      "bufferView": 0,
      "byteOffset": 3218640,
      "componentType": 5125,
      "count": 276684,
      "type": "SCALAR"
    },
    {
      "bufferView": 2,
      "byteOffset": 4506696,
      "componentType": 5126,
      "count": 25050,
      "max": [
        0.7012990117073059,
        0.7083023190498352,
        0.7085409164428711
      ],
      "min": [
        -0.7048327326774597,
        -0.7078040242195129,
        -0.7124817967414856
      ],
      "type": "VEC3"
    },
    {
      "bufferView": 2,
      "byteOffset": 4807296,
      "componentType": 5126,
      "count": 25050,
      "max": [
        0.9999728202819824,
        0.999869704246521,
        0.9996744394302368
      ],
      "min": [
        -0.9999469518661499,
        -0.9996933937072754,
        -0.9996821880340576
      ],
      "type": "VEC3"
    },
    {
      "bufferView": 1,
      "byteOffset": 3004464,
      "componentType": 5126,
      "count": 25050,
      "max": [
        0.8750002384185791,
        1.000000238418579
      ],
      "min": [
        0.1250000149011612,
        0.0
      ],
      "type": "VEC2"
    },
    {
      "bufferView": 1,
      "byteOffset": 3204864,
      "componentType": 5126,
      "count": 25050,
      "max": [
        0.0,
        0.0
      ],
      "min": [
        0.0,
        0.0
      ],
      "type": "VEC2"
    },
    {
      "bufferView": 0,
      "byteOffset": 4325376,
      "componentType": 5125,
      "count": 147456,
      "type": "SCALAR"
    }
  ],
  "asset": {
    "extras": {
      "author": "Schinsly (https://sketchfab.com/Schinsly)",
      "license": "CC-BY-4.0 (http://creativecommons.org/licenses/by/4.0/)",
      "source": "https://sketchfab.com/3d-models/santa-hat-e9d66be9221547bfa66acd1e1a210476",
      "title": "Santa Hat"
    },
    "generator": "Sketchfab-12.67.0",
    "version": "2.0"
  },
  "bufferViews": [
    {
      "buffer": 0,
      "byteLength": 4915200,
      "name": "floatBufferViews",
      "target": 34963
    },
    {
      "buffer": 0,
      "byteLength": 3405264,
      "byteOffset": 4915200,
      "byteStride": 8,
      "name": "floatBufferViews",
      "target": 34962
    },
    {
      "buffer": 0,
      "byteLength": 5107896,
      "byteOffset": 8320464,
      "byteStride": 12,
      "name": "floatBufferViews",
      "target": 34962
    },
    {
      "buffer": 0,
      "byteLength": 1170272,
      "byteOffset": 13428360,
      "byteStride": 16,
      "name": "floatBufferViews",
      "target": 34962
    }
  ],
  "buffers": [
    {
      "byteLength": 14598632,
      "uri": "scene.bin"
    }
  ],
  "images": [
    {
      "uri": "textures/Fabric17_PBR_baseColor.png"
    },
    {
      "uri": "textures/Fabric17_PBR_metallicRoughness.png"
    },
    {
      "uri": "textures/Fabric17_PBR_normal.jpeg"
    }
  ],
  "materials": [
    {
      "doubleSided": true,
      "name": "Fabric17_PBR",
      "normalTexture": {
        "index": 2,
        "scale": 0.7
      },
      "pbrMetallicRoughness": {
        "baseColorTexture": {
          "index": 0
        },
        "metallicRoughnessTexture": {
          "index": 1
        }
      }
    },
    {
      "doubleSided": true,
      "name": "Material.003",
      "pbrMetallicRoughness": {
        "metallicFactor": 0.0,
        "roughnessFactor": 0.5
      }
    }
  ],
  "meshes": [
    {
      "name": "Object_0",
      "primitives": [
        {
          "attributes": {
            "NORMAL": 1,
            "POSITION": 0,
            "TANGENT": 2,
            "TEXCOORD_0": 3,
            "TEXCOORD_1": 4
          },
          "indices": 5,
          "material": 0,
          "mode": 4
        }
      ]
    },
    {
      "name": "Object_1",
      "primitives": [
        {
          "attributes": {
            "NORMAL": 7,
            "POSITION": 6,
            "TANGENT": 8,
            "TEXCOORD_0": 9,
            "TEXCOORD_1": 10
          },
          "indices": 11,
          "material": 0,
          "mode": 4
        }
      ]
    },
    {
      "name": "Object_2",
      "primitives": [
        {
          "attributes": {
            "NORMAL": 13,
            "POSITION": 12,
            "TEXCOORD_0": 14,
            "TEXCOORD_1": 15
          },
          "indices": 16,
          "material": 1,
          "mode": 4
        }
      ]
    },
    {
      "name": "Object_3",
      "primitives": [
        {
          "attributes": {
            "NORMAL": 18,
            "POSITION": 17,
            "TEXCOORD_0": 19,
            "TEXCOORD_1": 20
          },
          "indices": 21,
          "material": 1,
          "mode": 4
        }
      ]
    },
    {
      "name": "Object_4",
      "primitives": [
        {
          "attributes": {
            "NORMAL": 23,
            "POSITION": 22,
            "TEXCOORD_0": 24,
            "TEXCOORD_1": 25
          },
          "indices": 26,
          "material": 1,
          "mode": 4
        }
      ]
    }
  ],
  "nodes": [
    {
      "children": [
        1
      ],
      "matrix": [
        0.7289410829544067,
        1.520065077761172e-16,
        -0.6845764517784119,
        0.0,
        -0.6845764517784119,
        3.2266969707400863e-16,
        -0.7289410829544067,
        0.0,
        1.1008828320204528e-16,
        1.0,
        3.3926726797078725e-16,
        0.0,
        -0.010879628360271454,
        -5.1128224327033834e-17,
        -0.019738947972655296,
        1.0
      ],
      "name": "Sketchfab_model"
    },
    {
      "children": [
        2
      ],
      "name": "root"
    },
    {
      "children": [
        3
      ],
      "matrix": [
        1.0,
        0.0,
        0.0,
        0.0,
        0.0,
        2.220446049250313e-16,
        1.0,
        0.0,
        0.0,
        -1.0,
        2.220446049250313e-16,
        0.0,
        0.0,
        0.0,
        0.0,
        1.0
      ],
      "name": "GLTF_SceneRootNode"
    },
    {
      "children": [
        4,
        5,
        6,
        7,
        8
      ],
      "name": "Cube.011_1"
    },
    {
      "mesh": 0,
      "name": "Object_4"
    },
    {
      "mesh": 1,
      "name": "Object_5"
    },
    {
      "mesh": 2,
      "name": "Object_6"
    },
    {
      "mesh": 3,
      "name": "Object_7"
    },
    {
      "children": [
        9
      ],
      "matrix": [
        0.1937660127878189,
        0.0,
        0.0,
        0.0,
        0.0,
        0.1937660276889801,
        0.0,
        0.0,
        0.0,
        0.0,
        0.1937660276889801,
        0.0,
        0.1405566781759262,
        0.09423774480819702,
        0.6197630167007446,
        1.0
      ],
      "name": "Cube.012_0"
    },
    {
      "mesh": 4,
      "name": "Object_9"
    }
  ],
  "samplers": [
    {
      "magFilter": 9729,
      "minFilter": 9987,
      "wrapS": 10497,
      "wrapT": 10497
    }
  ],
  "scene": 0,
  "scenes": [
    {
      "name": "Sketchfab_Scene",
      "nodes": [
        0
      ]
    }
  ],
  "textures": [
    {
      "sampler": 0,
      "source": 0
    },
    {
      "sampler": 0,
      "source": 1
    },
    {
      "sampler": 0,
      "source": 2
    }
  ]
}
