{
	"asset":{
		"generator":"Khronos glTF Blender I/O v4.0.44",
		"version":"2.0"
	},
	"scene":0,
	"scenes":[
		{
			"name":"Scene",
			"nodes":[
				3
			]
		}
	],
	"nodes":[
		{
			"mesh":0,
			"name":"Cone.001",
			"scale":[
				5.742290496826172,
				1.1553618907928467,
				6.904472351074219
			],
			"translation":[
				0.4160378575325012,
				3.283667802810669,
				0
			]
		},
		{
			"mesh":1,
			"name":"Cone.002",
			"scale":[
				5.742290496826172,
				1.1553618907928467,
				6.904472351074219
			],
			"translation":[
				0.4160378575325012,
				4.578773498535156,
				0
			]
		},
		{
			"mesh":2,
			"name":"Cone.003",
			"scale":[
				5.742290496826172,
				1.1553618907928467,
				6.904472351074219
			],
			"translation":[
				0.4160378575325012,
				1.9203991889953613,
				0
			]
		},
		{
			"children":[
				0,
				1,
				2
			],
			"mesh":3,
			"name":"Cube",
			"scale":[
				0.17414654791355133,
				0.4401618242263794,
				0.14483366906642914
			],
			"translation":[
				-0.07245155423879623,
				0.8624178767204285,
				0
			]
		}
	],
	"meshes":[
		{
			"name":"Cone.004",
			"primitives":[
				{
					"attributes":{
						"POSITION":0,
						"NORMAL":1,
						"TEXCOORD_0":2
					},
					"indices":3
				}
			]
		},
		{
			"name":"Cone.002",
			"primitives":[
				{
					"attributes":{
						"POSITION":4,
						"NORMAL":5,
						"TEXCOORD_0":6
					},
					"indices":3
				}
			]
		},
		{
			"name":"Cone.005",
			"primitives":[
				{
					"attributes":{
						"POSITION":7,
						"NORMAL":8,
						"TEXCOORD_0":9
					},
					"indices":3
				}
			]
		},
		{
			"name":"Cube.001",
			"primitives":[
				{
					"attributes":{
						"POSITION":10,
						"NORMAL":11,
						"TEXCOORD_0":12
					},
					"indices":13
				}
			]
		}
	],
	"accessors":[
		{
			"bufferView":0,
			"componentType":5126,
			"count":24,
			"max":[
				0.7557018399238586,
				1,
				0.859438419342041
			],
			"min":[
				-0.9238795042037964,
				-1,
				-1
			],
			"type":"VEC3"
		},
		{
			"bufferView":1,
			"componentType":5126,
			"count":24,
			"type":"VEC3"
		},
		{
			"bufferView":2,
			"componentType":5126,
			"count":24,
			"type":"VEC2"
		},
		{
			"bufferView":3,
			"componentType":5123,
			"count":30,
			"type":"SCALAR"
		},
		{
			"bufferView":4,
			"componentType":5126,
			"count":24,
			"max":[
				0.7557018399238586,
				1,
				0.859438419342041
			],
			"min":[
				-0.9238795042037964,
				-1,
				-1
			],
			"type":"VEC3"
		},
		{
			"bufferView":5,
			"componentType":5126,
			"count":24,
			"type":"VEC3"
		},
		{
			"bufferView":6,
			"componentType":5126,
			"count":24,
			"type":"VEC2"
		},
		{
			"bufferView":7,
			"componentType":5126,
			"count":24,
			"max":[
				0.7557018399238586,
				1,
				0.859438419342041
			],
			"min":[
				-0.9238795042037964,
				-1,
				-1
			],
			"type":"VEC3"
		},
		{
			"bufferView":8,
			"componentType":5126,
			"count":24,
			"type":"VEC3"
		},
		{
			"bufferView":9,
			"componentType":5126,
			"count":24,
			"type":"VEC2"
		},
		{
			"bufferView":10,
			"componentType":5126,
			"count":24,
			"max":[
				1,
				1,
				1
			],
			"min":[
				-1,
				-1,
				-1
			],
			"type":"VEC3"
		},
		{
			"bufferView":11,
			"componentType":5126,
			"count":24,
			"type":"VEC3"
		},
		{
			"bufferView":12,
			"componentType":5126,
			"count":24,
			"type":"VEC2"
		},
		{
			"bufferView":13,
			"componentType":5123,
			"count":36,
			"type":"SCALAR"
		}
	],
	"bufferViews":[
		{
			"buffer":0,
			"byteLength":288,
			"byteOffset":0,
			"target":34962
		},
		{
			"buffer":0,
			"byteLength":288,
			"byteOffset":288,
			"target":34962
		},
		{
			"buffer":0,
			"byteLength":192,
			"byteOffset":576,
			"target":34962
		},
		{
			"buffer":0,
			"byteLength":60,
			"byteOffset":768,
			"target":34963
		},
		{
			"buffer":0,
			"byteLength":288,
			"byteOffset":828,
			"target":34962
		},
		{
			"buffer":0,
			"byteLength":288,
			"byteOffset":1116,
			"target":34962
		},
		{
			"buffer":0,
			"byteLength":192,
			"byteOffset":1404,
			"target":34962
		},
		{
			"buffer":0,
			"byteLength":288,
			"byteOffset":1596,
			"target":34962
		},
		{
			"buffer":0,
			"byteLength":288,
			"byteOffset":1884,
			"target":34962
		},
		{
			"buffer":0,
			"byteLength":192,
			"byteOffset":2172,
			"target":34962
		},
		{
			"buffer":0,
			"byteLength":288,
			"byteOffset":2364,
			"target":34962
		},
		{
			"buffer":0,
			"byteLength":288,
			"byteOffset":2652,
			"target":34962
		},
		{
			"buffer":0,
			"byteLength":192,
			"byteOffset":2940,
			"target":34962
		},
		{
			"buffer":0,
			"byteLength":72,
			"byteOffset":3132,
			"target":34963
		}
	],
	"buffers":[
		{
			"byteLength":3204,
			"uri":"Tree.bin"
		}
	]
}
